<svg xmlns="http://www.w3.org/2000/svg" width="1440" height="865" fill="none"><g clip-path="url(#a)"><path fill="#FAF8F5" d="M1296 144h144v144h-144zm0 433h144v144h-144zM864 144h144v144H864z"/><path fill="url(#b)" fill-rule="evenodd" d="M143.874.504H.504v143.509H129.02l14.853-14.868V.505zm15.249 143.509-14.661-14.676V.504h143.37v143.509H159.123zm-14.661 15.045 14.443-14.457h128.927v143.508h-143.37V159.058zm-15.223-14.457 14.635 14.649v128.859H.504V144.601h128.735zM0 0v865h1440V0H0zm288.419.504H431.79v143.509H288.419V.504zm287.329 0h-143.37v143.509h143.37V.504zm.588 0h143.37v143.509h-143.37V.504zm287.328 0H720.293v143.509h143.371V.504zm.588 0h143.368v143.509H864.252V.504zm287.328 0h-143.37v143.509h143.37V.504zm.59 0h143.37v143.509h-143.37V.504zm287.33 0h-143.37v143.509h143.37V.504zM288.419 144.601H431.79v143.508H288.419V144.601zm287.329 0h-143.37v143.508h128.949l14.421-14.435V144.601zm14.778 143.508-14.19-14.204V144.601h143.37v143.508h-129.18zm-14.19 15.478 14.826-14.841-.049-.049h128.593v143.509h-143.37V303.587zm-15.596-14.89-.049.049 15.057 15.072v128.388h-143.37V288.697H560.74zm302.924-144.096H720.293v143.508h143.371V144.601zm.588 0h143.368v143.508H864.252V144.601zm287.328 0h-143.37v143.508h143.37V144.601zm.59 0h143.37v103.694l-.25.244-39.53 39.57h-103.59V144.601zm103 144.096h-103v129.371l.48-.482 14.6 14.62h128.29V329.198l-.25-.244-39.78-39.818-.38-.39.04-.049zm40.37 39.722-39.64-39.673.05-.049h24.55l-.05.049 15.09 15.105v24.568zm.59.482v103.305h143.37V288.697h-103.31l.05.049-.39.39-39.72 39.765zm39.28-40.204.05.049-39.33 39.376v-24.567l14.79-14.809-.05-.049h24.54zm.19-.588h103.9V144.601h-143.37v103.991l39.47 39.517zm-39.47-38.738 38.7 38.738h-24.55l-14.15-14.171v-24.567zm-.59-.297-39 39.035h24.54l14.46-14.467v-24.568zm-143.37 198.531.48.482 15.24-15.251-.05-.042h127.7v143.508h-143.37V447.605zm-14.71-14.811-.05.042 14.17 14.181v129.285h-143.37V432.794h129.25zm14.12-14.138-13.54 13.55h-129.83V288.697h143.37v129.959zM.504 288.697h143.37v143.509H.504V288.697zm287.328 0h-143.37v143.509h143.37V288.697zm.587 0H431.79v143.509H288.419V288.697zm575.245 0h-143.37v143.509h143.37V288.697zm.588 0h143.368v143.509H864.252V288.697zM.504 432.794h143.37v143.508H.504V432.794zm287.328 0h-143.37v143.508h103.756l-.186-.186.389-.39 39.411-39.449V432.794zm0 104.262-39.022 39.06.186.186h24.544l-.186-.186 14.478-14.493v-24.567zm.587 23.979v-24.567l.17-.17 39.78 39.818-.186.186h-24.544l.186-.186-15.236-15.251-.17.17zm0 30.161.17.17 14.462-14.475h24.544l-39.006 39.043-.17-.17v-24.568zm-14.291-14.305 13.704 13.717v24.568l-38.248-38.285h24.544zm-25.322 0H144.462v143.508h143.37V615.955l-39.026-39.064zm39.613 39.651v103.857H431.79V576.891H328.373l-39.395 39.432-.389.389-.17-.17zm40.542-40.24H431.79V432.794H288.419v102.895l.17-.17.389.389 39.78 39.818.389.39-.186.186zm246.787-143.508h-143.37v143.508h143.37V432.794zm.588 0h143.37v143.508h-143.37V432.794zm287.328 0H720.293v143.508h143.371V432.794zm.588 0h143.368v143.508H864.252V432.794zm575.248 0h-143.37v143.508h143.37V432.794zM.504 576.891h143.37v143.508H.504V576.891zm575.244 0h-143.37v143.508h143.37V576.891zm.588 0h143.37v143.508h-143.37V576.891zm287.328 0H720.293v143.508h143.371V576.891zm.588 0h143.368v143.508H864.252V576.891zm287.328 0h-143.37v143.508h143.37V576.891zm.59 0h143.37v143.508h-143.37V576.891zm287.33 0h-143.37v143.508h143.37V576.891zM.504 720.987h143.37v143.509H.504V720.987zm287.328 0h-143.37v143.509h143.37V720.987zm.587 0H431.79v143.509H288.419V720.987zm287.329 0h-143.37v143.509h143.37V720.987zm.588 0h143.37v143.509h-143.37V720.987zm287.328 0H720.293v143.509h143.371V720.987zm.588 0h143.368v143.509H864.252V720.987zm287.328 0h-143.37v143.509h143.37V720.987zm.59 0h143.37v143.509h-143.37V720.987zm287.33 0h-143.37v143.509h143.37V720.987z" clip-rule="evenodd"/></g><defs><linearGradient id="b" x1="1440" x2="441" y1="0" y2="600.5" gradientUnits="userSpaceOnUse"><stop stop-color="#DAD1BE"/><stop offset="1" stop-color="#fff" stop-opacity="0"/></linearGradient><clipPath id="a"><path fill="#fff" d="M0 0h1440v865H0z"/></clipPath></defs></svg>