<svg xmlns="http://www.w3.org/2000/svg" width="54" height="54" fill="none"><rect width="52" height="52" x="1" y="1" fill="#F7F8AB" rx="26"/><path stroke="#050505" stroke-miterlimit="10" stroke-width="1.3" d="M27 53c14.36 0 26-11.64 26-26S41.36 1 27 1 1 12.64 1 27s11.64 26 26 26z"/><path stroke="#050505" stroke-miterlimit="10" stroke-width="1.3" d="M26.755 38.387c6.424 0 11.632-5.208 11.632-11.632 0-6.424-5.208-11.631-11.632-11.631-6.424 0-11.631 5.207-11.631 11.631s5.207 11.632 11.631 11.632zM26.679 1v52M53 26.407H1m44.651 19.244L8.704 8.704m0 36.947L45.65 8.704"/><path fill="#050505" d="M26.679 30.53a3.852 3.852 0 1 0 0-7.703 3.852 3.852 0 0 0 0 7.704z"/></svg>