<svg xmlns="http://www.w3.org/2000/svg" width="126" height="32" fill="none"><path fill="#FA6318" d="M10.75 6.5A4.25 4.25 0 0 1 15 10.75V15h-4.25a4.25 4.25 0 0 1 0-8.5zm0 10.5H15v4.25A4.25 4.25 0 1 1 10.75 17zm10.5-10.5a4.25 4.25 0 1 1 0 8.5H17v-4.25a4.25 4.25 0 0 1 4.25-4.25zM17 17h4.25A4.25 4.25 0 1 1 17 21.25V17z"/><path fill="#050505" d="M43.896 9.288c-.368 0-.744.032-1.128.096a3.299 3.299 0 0 0-1.056.36c-.32.16-.584.392-.792.696-.208.288-.312.656-.312 1.104 0 .672.224 1.184.672 1.536a4.84 4.84 0 0 0 1.608.768c.448.128.896.248 1.344.36.464.112.888.208 1.272.288.672.144 1.304.32 1.896.528a5.333 5.333 0 0 1 1.584.84c.448.336.8.768 1.056 1.296.272.512.408 1.152.408 1.92 0 .912-.168 1.688-.504 2.328-.32.64-.76 1.168-1.32 1.584-.56.416-1.216.72-1.968.912a9.774 9.774 0 0 1-2.424.288 11.7 11.7 0 0 1-2.52-.264 6.94 6.94 0 0 1-2.112-.888 5.452 5.452 0 0 1-1.56-1.584c-.416-.64-.68-1.408-.792-2.304h2.88c.128.48.336.88.624 1.2.288.32.616.576.984.768.384.192.792.328 1.224.408.432.08.856.12 1.272.12.448 0 .88-.032 1.296-.096.416-.08.776-.208 1.08-.384.304-.176.552-.408.744-.696.192-.288.288-.664.288-1.128 0-.64-.168-1.104-.504-1.392-.336-.304-.784-.528-1.344-.672a27.116 27.116 0 0 0-2.376-.576c-.8-.176-1.56-.4-2.28-.672a7.733 7.733 0 0 1-1.32-.624c-.4-.24-.752-.528-1.056-.864a3.811 3.811 0 0 1-.72-1.176c-.16-.464-.24-1-.24-1.608 0-.928.176-1.704.528-2.328a4.39 4.39 0 0 1 1.368-1.536 5.697 5.697 0 0 1 1.944-.816 9.265 9.265 0 0 1 2.208-.264c.8 0 1.56.096 2.28.288.72.176 1.36.456 1.92.84.56.384 1.008.88 1.344 1.488.352.608.56 1.344.624 2.208H47.28c-.064-.432-.2-.792-.408-1.08a2.215 2.215 0 0 0-.744-.696 2.842 2.842 0 0 0-1.008-.408 5.944 5.944 0 0 0-1.224-.168zm8.319 19.632V11.352h2.592l.144 1.8a4.733 4.733 0 0 1 1.824-1.512 5.437 5.437 0 0 1 2.328-.504c.864 0 1.64.16 2.328.48a4.866 4.866 0 0 1 1.752 1.296c.496.56.864 1.24 1.104 2.04.256.784.384 1.68.384 2.688a9.07 9.07 0 0 1-.36 2.616c-.24.8-.6 1.496-1.08 2.088a4.72 4.72 0 0 1-1.752 1.344c-.688.32-1.496.48-2.424.48-.8 0-1.56-.12-2.28-.36a4.782 4.782 0 0 1-1.824-1.176v6.288h-2.736zm6.312-7.128c.592 0 1.104-.104 1.536-.312.432-.224.784-.52 1.056-.888.288-.368.496-.8.624-1.296a5.745 5.745 0 0 0 .216-1.608c0-.576-.072-1.112-.216-1.608a3.481 3.481 0 0 0-.624-1.32 2.758 2.758 0 0 0-1.08-.864c-.432-.208-.952-.312-1.56-.312-.592 0-1.104.112-1.536.336-.432.224-.8.52-1.104.888a3.849 3.849 0 0 0-.696 1.32 5.481 5.481 0 0 0-.216 1.536c0 1.168.304 2.144.912 2.928.608.784 1.504 1.184 2.688 1.2zm9.897-3.192c.032.464.128.896.288 1.296.16.4.376.752.648 1.056.288.288.632.52 1.032.696.416.176.896.264 1.44.264.576 0 1.104-.104 1.584-.312.48-.208.832-.568 1.056-1.08h2.808a4.307 4.307 0 0 1-.792 1.656 4.6 4.6 0 0 1-1.272 1.152 5.741 5.741 0 0 1-1.608.648 8.506 8.506 0 0 1-1.848.192c-1.008 0-1.896-.152-2.664-.456a5.004 5.004 0 0 1-1.896-1.32 5.685 5.685 0 0 1-1.152-2.04c-.24-.8-.36-1.696-.36-2.688 0-.96.136-1.832.408-2.616.272-.8.664-1.488 1.176-2.064a5.531 5.531 0 0 1 1.896-1.344c.736-.336 1.576-.504 2.52-.504.992 0 1.848.168 2.568.504.72.32 1.32.76 1.8 1.32a5.41 5.41 0 0 1 1.104 1.968c.24.752.36 1.568.36 2.448 0 .416-.024.824-.072 1.224h-9.024zm6.432-2.064c-.032-.96-.336-1.704-.912-2.232-.576-.528-1.32-.792-2.232-.792-.512 0-.96.08-1.344.24a3.01 3.01 0 0 0-.984.648 3.314 3.314 0 0 0-.624.96c-.16.368-.264.76-.312 1.176h6.408zm9.942 7.632c-1.024 0-1.912-.152-2.664-.456a5.386 5.386 0 0 1-1.896-1.32 5.886 5.886 0 0 1-1.128-2.04c-.24-.8-.36-1.68-.36-2.64 0-.96.128-1.84.384-2.64a5.75 5.75 0 0 1 1.2-2.064 5.753 5.753 0 0 1 1.92-1.368c.752-.336 1.624-.504 2.616-.504 1.456 0 2.664.336 3.624 1.008.96.656 1.568 1.704 1.824 3.144H87.51a2.006 2.006 0 0 0-.936-1.272c-.48-.288-1.064-.432-1.752-.432-.608 0-1.128.112-1.56.336a2.918 2.918 0 0 0-1.056.912 3.963 3.963 0 0 0-.6 1.344 7.064 7.064 0 0 0-.168 1.56c0 .56.064 1.088.192 1.584s.328.928.6 1.296c.272.352.624.64 1.056.864.432.208.952.312 1.56.312.72 0 1.312-.16 1.776-.48.48-.32.784-.744.912-1.272h2.832c-.128.72-.368 1.344-.72 1.872a4.39 4.39 0 0 1-1.248 1.296 5.36 5.36 0 0 1-1.656.744 8.416 8.416 0 0 1-1.944.216zm10.7-12.816h3.193v2.376h-3.192v5.784c0 .72.128 1.256.384 1.608.256.352.744.528 1.464.528h1.248V24h-1.488c-1.552 0-2.664-.32-3.336-.96-.656-.64-.984-1.688-.984-3.144v-6.168h-1.992v-2.376h1.992V7.776h2.712v3.576zM99.755 24V11.352h2.568l.144 1.8c.976-1.344 2.304-2.016 3.984-2.016.16 0 .312.008.456.024.16 0 .304.008.432.024v2.544c-.192 0-.384.008-.576.024h-.528c-.704.016-1.296.144-1.776.384a3.243 3.243 0 0 0-1.152.912c-.288.384-.496.84-.624 1.368a6.814 6.814 0 0 0-.192 1.656V24h-2.736zm16.511-1.56a3.747 3.747 0 0 1-1.656 1.32c-.688.272-1.456.408-2.304.408-.672 0-1.288-.08-1.848-.24a4.348 4.348 0 0 1-1.44-.72 3.658 3.658 0 0 1-.984-1.224c-.24-.496-.36-1.056-.36-1.68 0-.688.136-1.272.408-1.752.272-.496.64-.896 1.104-1.2a5.28 5.28 0 0 1 1.68-.672c.64-.16 1.312-.24 2.016-.24h3.24c0-.928-.208-1.648-.624-2.16-.416-.512-1.144-.776-2.184-.792-.608 0-1.136.104-1.584.312-.432.208-.72.552-.864 1.032h-2.808c.096-.672.312-1.24.648-1.704a4.743 4.743 0 0 1 1.248-1.152 5.201 5.201 0 0 1 1.632-.648 8.832 8.832 0 0 1 1.824-.192c.784 0 1.512.104 2.184.312.672.208 1.256.56 1.752 1.056.56.576.936 1.264 1.128 2.064.192.8.288 1.672.288 2.616V24h-2.376l-.12-1.56zm-.144-4.056h-2.64c-.464 0-.928.04-1.392.12a2.384 2.384 0 0 0-1.2.504c-.32.256-.48.632-.48 1.128 0 .608.216 1.072.648 1.392.448.304.992.456 1.632.456.496 0 .952-.064 1.368-.192.432-.128.8-.336 1.104-.624a2.99 2.99 0 0 0 .696-1.128c.176-.464.264-1.016.264-1.656zm6.33 2.28c.512 0 .928.16 1.248.48.336.32.504.752.504 1.296 0 .56-.168.992-.504 1.296-.32.304-.736.456-1.248.456s-.936-.152-1.272-.456c-.32-.304-.48-.736-.48-1.296 0-.544.16-.976.48-1.296.336-.32.76-.48 1.272-.48z"/></svg>