<svg xmlns="http://www.w3.org/2000/svg" width="64" height="64" fill="none"><path fill="#050505" d="M55.999 30.846H39.294c-1.663 0-2.495-2.01-1.32-3.187l11.812-11.812-1.633-1.634L36.34 26.025c-1.175 1.176-3.187.344-3.187-1.32V8h-2.31v16.705c0 1.664-2.01 2.496-3.186 1.32L15.846 14.213l-1.633 1.634 11.812 11.812c1.175 1.175.343 3.187-1.32 3.187H8v2.31h16.704c1.663 0 2.496 2.01 1.32 3.187l-11.81 11.81 1.633 1.634L27.66 37.975c1.175-1.176 3.187-.343 3.187 1.32V56h2.31V39.295c0-1.663 2.01-2.496 3.186-1.32l11.812 11.812 1.633-1.633L37.975 36.34c-1.175-1.175-.343-3.187 1.32-3.187H56v-2.309h-.001z"/><circle cx="32" cy="32" r="3" fill="#FA6318"/></svg>