<svg xmlns="http://www.w3.org/2000/svg" width="98" height="20" fill="none"><path fill="#050505" fill-rule="evenodd" d="M20.003 2.013.13 9.933a.196.196 0 0 0-.095.083.205.205 0 0 0-.034.115.201.201 0 0 0 .129.19l5.9 2.132a.19.19 0 0 0 .1.011.213.213 0 0 0 .092-.038l11.194-8.171a.023.023 0 0 1 .018 0 .034.034 0 0 1 .016.01.02.02 0 0 1 .002.008.02.02 0 0 1-.002.008.024.024 0 0 1 0 .018l-9.91 8.635a.215.215 0 0 0-.053.072.207.207 0 0 0-.017.088v4.598a.189.189 0 0 0 .036.116c.025.035.059.06.098.076a.2.2 0 0 0 .224-.066l2.86-3.531a.205.205 0 0 1 .102-.067.2.2 0 0 1 .125 0l3.645 1.324c.048.02.102.02.15 0a.214.214 0 0 0 .106-.108l5.452-13.158a.197.197 0 0 0 .01-.115.192.192 0 0 0-.054-.103.198.198 0 0 0-.217-.047" clip-rule="evenodd"/><path fill="#050505" d="M26.285 3.609h-1.797l.026 10.963h1.797L26.285 3.61zm5.655 3.075c-.908 0-1.739.327-2.26.981v-.818h-1.694l.02 7.724H29.7l-.013-5.114a2.02 2.02 0 0 1 1.89-1.224c1.077 0 1.695.768 1.698 1.988l.01 4.35h1.693l-.011-4.62c0-1.996-1.18-3.26-3.027-3.256m10.035.119-2.345 5.413-2.354-5.4h-1.878l3.498 7.716h1.495l3.474-7.733-1.89.004zm6.093-.168c-.987.016-1.932.4-2.653 1.075a3.99 3.99 0 0 0 1.997 6.833c.97.18 1.973-.008 2.813-.528a3.995 3.995 0 0 0 1.487-5.14 3.983 3.983 0 0 0-3.644-2.24zm.015 6.457c-1.369 0-2.327-1.06-2.329-2.435-.002-1.375.944-2.443 2.318-2.455 1.373-.011 2.312 1.062 2.315 2.437.004 1.374-.949 2.441-2.3 2.444l-.004.009zm6.927-6.326h-1.694l.02 7.723h1.693l-.02-7.723zm0-2.979h-1.694v1.568h1.693V3.798zm5.399 4.392a2.298 2.298 0 0 1 2.111 1.354l1.47-.805a3.992 3.992 0 0 0-3.593-2.128c-2.303.004-4.05 1.743-4.05 4.032 0 2.29 1.772 4.011 4.083 4.008a3.97 3.97 0 0 0 3.581-2.142l-1.48-.805a2.3 2.3 0 0 1-2.104 1.364c-1.369 0-2.342-1.06-2.346-2.434-.003-1.375.966-2.444 2.336-2.455m8.489-1.587c-2.34 0-4.02 1.757-4.008 4.028 0 2.342 1.69 4.013 4.025 4.008 1.608 0 2.817-.704 3.504-1.8l-1.287-.923c-.398.679-1.125 1.177-2.198 1.18-1.277 0-2.296-.83-2.376-2.096l6.043-.015c.014-.246.014-.386.014-.556 0-2.484-1.703-3.825-3.718-3.821l.001-.005zm-2.27 3.158c.229-1.146 1.225-1.72 2.213-1.72s1.878.597 2.066 1.708l-4.279.012zM93.99 6.531h-.06a3.965 3.965 0 0 0-2.839 1.165 3.98 3.98 0 0 0-1.164 2.843v.021a3.985 3.985 0 0 0 2.48 3.713c.49.199 1.013.298 1.541.291h.03a3.949 3.949 0 0 0 2.846-1.155 3.981 3.981 0 0 0 1.17-2.844v-.026a3.983 3.983 0 0 0-2.468-3.705 3.96 3.96 0 0 0-1.534-.296l-.002-.007zm-.02 6.464c-1.37 0-2.325-1.06-2.328-2.433-.003-1.373.949-2.445 2.316-2.455 1.367-.01 2.312 1.062 2.316 2.437.003 1.374-.95 2.441-2.303 2.444v.007zm-6.974-6.292v.71c-.541-.554-1.343-.86-2.266-.859-2.23 0-3.844 1.722-3.86 3.888a3.81 3.81 0 0 0 2.377 3.608 3.79 3.79 0 0 0 1.495.275c.926 0 1.724-.327 2.262-.901v.914c0 1.203-.654 1.846-1.539 2.042-2.205.396-3.575-.27-3.575-.27l-.54 1.388c.787.49 3.228.632 4.362.381 1.633-.288 2.992-1.358 2.987-3.526L88.684 6.7l-1.688.002zm.01 4.974a2.334 2.334 0 0 1-2.06 1.085c-1.338 0-2.311-.998-2.328-2.325a2.239 2.239 0 0 1 .164-.901 2.27 2.27 0 0 1 2.159-1.437 2.358 2.358 0 0 1 2.064 1.06l.002 2.518zm-11.234 1.318 2.31-3.142c.465-.61 1.208-1.636 1.347-1.86.643-1.066.722-2.185.163-3.303-.455-.91-1.26-1.353-2.252-1.472-1.39-.177-2.835.468-3.489 1.787a2.743 2.743 0 0 0-.293.92l1.48.328c.024-.064.045-.116.06-.164a1.866 1.866 0 0 1 1.038-1.228c.541-.248 1.317-.151 1.735.21.7.611.69 1.637.183 2.291-.085.112-4.469 5.708-4.469 5.708a.264.264 0 0 0-.062.175v1.239l6.505-.017v-1.472h-4.256z"/></svg>