<svg xmlns="http://www.w3.org/2000/svg" width="122" height="20" fill="none"><path fill="#050505" d="M12.337 8.08c0-1.99-1.33-3.798-3.852-3.813-1.697 0-6.788-.016-8.485-.016v11.52h2.019v-3.845h5.34l3.121 3.845h2.4v-.147l-3.242-3.928c2.034-.445 2.707-2.039 2.707-3.616h-.008zM2.027 9.968v-3.68h6.466c1.268 0 1.833.92 1.833 1.84 0 .921-.55 1.842-1.833 1.842l-6.466-.002zm24.296-5.713c-1.681 0-6.757.017-8.438.017v11.503h2.017v-3.39h6.42c5.244 0 5.228-8.134 0-8.134v.004zm0 6.143h-6.421V6.32h6.42c2.568 0 2.583 4.077 0 4.077zm36.875-.575c.993-.478 1.391-1.332 1.391-2.221 0-2.307-1.574-3.335-3.685-3.335h-8.469v11.504h8.47c2.215 0 4.004-.82 4.004-3.385 0-.724-.459-2.154-1.71-2.563zm-8.777-3.584h6.481c1.286 0 1.682.887 1.682 1.413 0 .657-.412 1.234-1.682 1.234h-6.48l-.001-2.647zm6.481 7.512h-6.48v-2.96h6.482c.825 0 2.004.542 2.004 1.578 0 1.084-1.17 1.382-2.004 1.382m10.851-9.484h-2.018v11.506h10.915v-2.007h-8.897V4.267zm15.744 0h-2.004v11.506H87.5V4.267zm15.126 8.326a4.309 4.309 0 0 1-.975.78c-.403.23-.831.405-1.274.52a5.96 5.96 0 0 1-1.537.19 5.678 5.678 0 0 1-2-.328 4.263 4.263 0 0 1-1.45-.891 3.726 3.726 0 0 1-.886-1.313A4.163 4.163 0 0 1 94.204 10a4.21 4.21 0 0 1 .299-1.569c.202-.502.504-.95.885-1.312.426-.396.92-.696 1.456-.883a5.759 5.759 0 0 1 1.997-.32c.493-.002.986.056 1.467.173.427.103.842.258 1.237.461.355.184.684.424.975.711.175.177.334.371.474.581l1.701-1.01a5.562 5.562 0 0 0-.742-.924 6.116 6.116 0 0 0-1.308-1.002 6.7 6.7 0 0 0-1.674-.667 8.222 8.222 0 0 0-2.025-.237 7.931 7.931 0 0 0-2.875.49 6.343 6.343 0 0 0-2.116 1.312 5.577 5.577 0 0 0-1.303 1.892 5.942 5.942 0 0 0-.462 2.302c0 .794.157 1.579.462 2.302a5.576 5.576 0 0 0 1.303 1.893 6.285 6.285 0 0 0 2.116 1.31c.921.342 1.89.51 2.864.497a8.14 8.14 0 0 0 2.087-.253 6.717 6.717 0 0 0 1.706-.707c.485-.282.93-.635 1.323-1.049.285-.304.537-.642.749-1.009l-1.709-1.006a3.572 3.572 0 0 1-.466.629m-58.722-8.35a1.62 1.62 0 0 0-.66.14c-.21.094-.401.23-.562.403a1.87 1.87 0 0 0-.374.602 1.98 1.98 0 0 0-.132.71h3.22v3.971a8.534 8.534 0 0 1-.323 1.552 3.74 3.74 0 0 1-.886 1.313c-.426.396-.92.699-1.453.891a4.21 4.21 0 0 1-3.316 0 4.252 4.252 0 0 1-1.453-.891 3.726 3.726 0 0 1-.886-1.313 8.55 8.55 0 0 1-.324-1.552V4.255h-1.993v5.826a5.88 5.88 0 0 0 .453 2.303 5.517 5.517 0 0 0 1.303 1.891 6.3 6.3 0 0 0 2.118 1.305 7.372 7.372 0 0 0 4.876 0 6.302 6.302 0 0 0 2.117-1.31 5.55 5.55 0 0 0 1.303-1.892c.302-.724.457-1.51.452-2.303v-5.82h-3.48zm70.599 1.906-4.713 9.61h-2.007l5.602-11.432v-.072h2.977L122 15.771h-2.007l-1.198-2.433h-3.591c-.233 0-.464-.05-.68-.145a1.779 1.779 0 0 1-.576-.415 1.92 1.92 0 0 1-.385-.62 2.022 2.022 0 0 1-.136-.73h4.428l-2.588-5.267h-.765z"/></svg>