<svg xmlns="http://www.w3.org/2000/svg" width="104" height="20" fill="none"><path fill="#050505" d="M4.762 15.815 0 4.185h2.44l3.485 8.676L9.43 4.185h2.439l-4.786 11.63H4.762zm9.208-6.837h7.152a3.746 3.746 0 0 0-1.314-1.99 3.516 3.516 0 0 0-2.24-.779 3.58 3.58 0 0 0-2.309.768 3.73 3.73 0 0 0-1.29 2zm-.718 5.28a5.788 5.788 0 0 1-1.327-1.937 5.7 5.7 0 0 1-.44-2.296 5.815 5.815 0 0 1 .434-2.301c.3-.731.745-1.396 1.31-1.956a5.718 5.718 0 0 1 1.947-1.33A5.808 5.808 0 0 1 17.506 4a6.17 6.17 0 0 1 4.217 1.593 5.666 5.666 0 0 1 1.395 1.9 5.59 5.59 0 0 1 .492 2.293c.002.35-.021.698-.069 1.044h-9.572a3.094 3.094 0 0 0 1.126 2.129 3.6 3.6 0 0 0 2.401.825 3.734 3.734 0 0 0 1.55-.276c.49-.2.93-.503 1.29-.886l2.773.024a6.127 6.127 0 0 1-2.275 2.431 6.106 6.106 0 0 1-3.27.92 5.957 5.957 0 0 1-2.339-.43 5.87 5.87 0 0 1-1.973-1.308zm11.932 1.557V9.752c0-1.86.458-3.26 1.373-4.2A4.776 4.776 0 0 1 28.21 4.47a4.84 4.84 0 0 1 1.96-.325h.236v2.213h-.237c-1.77 0-2.654 1.131-2.652 3.394v6.063h-2.333zM37.343 6.21a3.714 3.714 0 0 0-1.49.261c-.474.189-.9.472-1.255.833A3.87 3.87 0 0 0 33.5 9.998a3.87 3.87 0 0 0 1.098 2.695 3.664 3.664 0 0 0 2.714 1.104 3.627 3.627 0 0 0 2.686-1.091 3.921 3.921 0 0 0 1.077-2.694c0-1-.385-1.962-1.077-2.695a3.578 3.578 0 0 0-1.225-.827 3.634 3.634 0 0 0-1.461-.267l.03-.014zm-4.35-.466a6.212 6.212 0 0 1 7.733-.758 6.023 6.023 0 0 1 2.461 3.252 5.909 5.909 0 0 1-.199 4.047 6.053 6.053 0 0 1-2.768 3.004 6.224 6.224 0 0 1-4.082.597 6.145 6.145 0 0 1-3.541-2.08 5.945 5.945 0 0 1-1.392-3.815 5.7 5.7 0 0 1 .447-2.304 5.791 5.791 0 0 1 1.34-1.943zm22.46 10.071H52.8l-3.057-4.163-3.056 4.163h-2.676l4.405-6.046-4.052-5.584h2.631l2.724 3.722 2.772-3.722h2.632L51.072 9.77l4.38 6.046zm2.693-.038v-3.89h-2.123V10.54h2.123v-.414l.048-1.418c.128-1.412.579-2.521 1.352-3.327a4.77 4.77 0 0 1 3.087-1.395v1.422a3.524 3.524 0 0 0-2.024 1.047 3.608 3.608 0 0 0-.912 2.257l-.048 1.418v.414h3.736v1.347h-3.723v3.89l-1.516-.004zm9.16-11.589H65.79v11.63h1.516V4.188zM79.22 6.755a4.378 4.378 0 0 0-1.487-1 4.446 4.446 0 0 0-1.772-.327 4.532 4.532 0 0 0-1.78.33 4.464 4.464 0 0 0-1.5.997 4.62 4.62 0 0 0-1.343 3.25 4.62 4.62 0 0 0 1.344 3.25c.421.433.929.776 1.491 1.008a4.514 4.514 0 0 0 1.778.34 4.46 4.46 0 0 0 1.766-.329 4.392 4.392 0 0 0 1.483-.995 4.696 4.696 0 0 0 1.32-3.257 4.696 4.696 0 0 0-1.32-3.257l.02-.01zm-7.605-1.01a6.212 6.212 0 0 1 7.733-.758 6.023 6.023 0 0 1 2.461 3.251 5.91 5.91 0 0 1-.198 4.047 6.053 6.053 0 0 1-2.77 3.004 6.224 6.224 0 0 1-4.08.597 6.145 6.145 0 0 1-3.542-2.08 5.945 5.945 0 0 1-1.392-3.815c-.012-.79.14-1.574.447-2.304a5.791 5.791 0 0 1 1.34-1.943zm22.312 1.01a4.377 4.377 0 0 0-1.487-1 4.445 4.445 0 0 0-1.772-.327 4.533 4.533 0 0 0-1.78.33 4.466 4.466 0 0 0-1.5.997 4.62 4.62 0 0 0-1.342 3.25 4.62 4.62 0 0 0 1.343 3.25c.42.433.929.777 1.491 1.008a4.506 4.506 0 0 0 1.778.34c.605.01 1.206-.1 1.764-.329a4.379 4.379 0 0 0 1.482-.995 4.693 4.693 0 0 0 1.32-3.257 4.693 4.693 0 0 0-1.32-3.257l.023-.01zm-7.602-1.01a6.212 6.212 0 0 1 7.733-.758 6.023 6.023 0 0 1 2.462 3.251 5.91 5.91 0 0 1-.199 4.047 6.053 6.053 0 0 1-2.769 3.004 6.224 6.224 0 0 1-4.081.597 6.145 6.145 0 0 1-3.541-2.08 5.945 5.945 0 0 1-1.392-3.815 5.7 5.7 0 0 1 .446-2.304 5.788 5.788 0 0 1 1.341-1.943zm12.224 10.07V9.786c0-1.875.438-3.286 1.314-4.233.45-.475.999-.847 1.611-1.092a4.624 4.624 0 0 1 1.929-.326c.115-.002.23.005.343.02v1.421a1.886 1.886 0 0 0-.343-.023 3.05 3.05 0 0 0-1.348.254 2.997 2.997 0 0 0-1.091.817c-.599.711-.899 1.766-.899 3.162v6.029h-1.516zm3.9-1.294h.258a.413.413 0 0 0 .25-.054.162.162 0 0 0 .05-.062.153.153 0 0 0 .015-.079.168.168 0 0 0-.031-.101.195.195 0 0 0-.089-.067.741.741 0 0 0-.213-.02h-.24v.383zm-.212.724v-1.283h.452a1.15 1.15 0 0 1 .344.034.341.341 0 0 1 .226.313.33.33 0 0 1-.103.246.417.417 0 0 1-.274.115c.042.016.08.04.113.07.073.078.137.162.192.253l.161.252h-.257l-.117-.202a.982.982 0 0 0-.223-.3.26.26 0 0 0-.168-.043h-.134v.546h-.212zm.535-1.656a1.044 1.044 0 0 0-.498.13.92.92 0 0 0-.38.368.975.975 0 0 0-.004.994.933.933 0 0 0 .377.367 1.01 1.01 0 0 0 1.009 0 .933.933 0 0 0 .377-.367.994.994 0 0 0-.003-.994.946.946 0 0 0-.381-.367 1.04 1.04 0 0 0-.477-.132h-.02zm0-.196c.209 0 .414.053.597.152.191.101.35.254.456.44.104.184.16.39.161.6.001.208-.055.413-.161.593a1.113 1.113 0 0 1-.449.445 1.256 1.256 0 0 1-1.208 0 1.14 1.14 0 0 1-.439-.448 1.172 1.172 0 0 1 0-1.193 1.14 1.14 0 0 1 .456-.44c.186-.1.395-.15.607-.149h-.02z"/></svg>