<svg xmlns="http://www.w3.org/2000/svg" width="96" height="20" fill="none"><g fill="#050505" clip-path="url(#a)"><path d="M8.817 4.502c-.055-.073-.118-.112-.189-.112a.276.276 0 0 0-.144.048c-.533.418-1.262 2.19-1.859 4.525l.529.006c1.044.011 2.122.024 3.188.04a48.108 48.108 0 0 0-.79-2.726c-.356-1.081-.596-1.566-.735-1.781z"/><path d="M10.003 0C4.48 0 0 4.477 0 10s4.48 10 10.003 10 10.003-4.477 10.003-10S15.527 0 10.003 0zm7.19 10.181-.002.003a.48.48 0 0 1-.033.024l-.011.008-.023.014-.022.013a.53.53 0 0 1-.246.06h-4.738c.037.157.08.336.124.53.26 1.121.95 4.1 1.682 4.1h.038c.572 0 .864-.827 1.505-2.64l.008-.021c.102-.292.218-.62.344-.968l.032-.088a.23.23 0 0 1 .435.146l-.027.089c-.067.216-.138.51-.22.85-.381 1.58-.958 3.97-2.437 3.97h-.01c-.956-.008-1.527-1.535-1.773-2.188-.456-1.22-.803-2.519-1.135-3.777H6.32L5.416 13.2l-.014-.01a.46.46 0 0 1-.849-.245v-.016l.055-.328c.125-.744.275-1.517.446-2.298h-1.84l-.007-.007a.697.697 0 0 1-.431-1.131.69.69 0 0 1 .408-.238 1.71 1.71 0 0 1 .215-.01h.09c.583.01 1.205.02 1.882.029.961-3.906 2.075-5.888 3.31-5.894 1.326 0 2.309 3.017 3.096 5.969l.003.011c1.617.033 3.34.08 5.016.201l.07.007a.57.57 0 0 1 .08.007h.01l.009.002h.004a.53.53 0 0 1 .229.93l-.004.002zm8.363 2.321-.793 1.96H22.46l4.384-10.23h2.035l4.368 10.23h-2.29l-.793-1.96h-4.607zm2.29-5.683-1.496 3.724h3.022L27.846 6.82zm18.384 3.709v3.934h-2.079v-3.754c0-1.137-.553-1.75-1.526-1.75-.434 0-.913.194-1.347.793.036.258.056.517.06.777v3.934H39.26v-3.754c0-1.137-.554-1.75-1.541-1.75-.402 0-.853.24-1.272.808v4.696h-2.08V7.298h2.08v.433c.449-.418.928-.658 1.765-.658.913 0 1.72.36 2.29 1.017.763-.703 1.481-1.017 2.603-1.017 1.75 0 3.126 1.361 3.126 3.455zm9.14.359c0 2.079-1.585 3.724-3.56 3.724-.808 0-1.48-.21-2.034-.569v3.874h-2.08V7.297h2.08v.42c.554-.36 1.227-.569 2.034-.569 1.975 0 3.56 1.63 3.56 3.739zm-2.048 0c0-1.062-.778-1.99-1.855-1.99-.614 0-1.227.21-1.69.838v2.29c.463.612 1.076.822 1.69.822 1.078-.002 1.854-.913 1.854-1.96h.001zm5.294 3.573h-2.079V3.844h2.08V14.46zm1.871-9.69c0-.702.553-1.226 1.256-1.226.688 0 1.242.522 1.242 1.226 0 .688-.554 1.197-1.242 1.197-.703 0-1.256-.509-1.256-1.197zm2.303 2.528v7.164h-2.079V7.298h2.08zm7.554 7.059c-.867.269-1.256.329-1.928.329-1.735 0-2.872-1.227-2.872-3.081V9.047h-1.51v-1.75h1.51V4.74h2.065v2.558h2.588v1.75h-2.588v2.542c0 .808.494 1.182 1.256 1.182.39 0 .808-.09 1.212-.195l.267 1.78zm8.348.103h-2.08v-.508c-.583.464-1.241.733-2.048.733-1.885 0-3.142-1.36-3.142-3.44V7.298h2.08v3.754c0 1.137.568 1.75 1.54 1.75.523 0 1.093-.314 1.571-.897V7.297h2.08l-.001 7.164zm8.826 0H85.44v-.418c-.553.359-1.227.568-2.035.568-1.974 0-3.575-1.63-3.575-3.739 0-2.078 1.6-3.724 3.575-3.724.808 0 1.481.21 2.035.568V3.843h2.08V14.46zm-2.08-2.437V9.735c-.463-.613-1.076-.822-1.69-.822-1.092 0-1.855.912-1.855 1.959 0 1.062.763 1.989 1.855 1.989.612 0 1.227-.208 1.69-.836zm10.517-.613h-5.28c.164.838.718 1.496 1.855 1.496.583 0 .987-.18 1.211-.539h2.17c-.39 1.376-1.736 2.318-3.426 2.318-2.304 0-3.86-1.66-3.86-3.798 0-2.214 1.541-3.816 3.8-3.816 2.049 0 3.575 1.45 3.575 3.665a4.12 4.12 0 0 1-.045.674zm-5.266-1.226h3.247c-.12-.897-.659-1.391-1.496-1.391-1.002 0-1.556.583-1.75 1.39z"/></g><defs><clipPath id="a"><path fill="#fff" d="M0 0h96v20H0z"/></clipPath></defs></svg>